<svg xmlns="http://www.w3.org/2000/svg" viewBox="0 0 60 48"><defs><style>.cls-1{fill:#fff;}</style></defs><g id="Ebene_2" data-name="Ebene 2"><g id="Ebene_1-2" data-name="Ebene 1"><g id="Ebene_2-2" data-name="Ebene 2"><g id="_ŽÓť_1" data-name=" ŽÓť 1"><path class="cls-1" d="M30,42.9a16,16,0,1,1,15.84-16A15.94,15.94,0,0,1,30,42.9Zm0-30.17A14.15,14.15,0,1,0,44,26.88v0A14.06,14.06,0,0,0,30,12.73Z"/><path class="cls-1" d="M40.35,27.82a1,1,0,0,1-.94-1h0A9.46,9.46,0,0,0,30,17.35h0a.93.93,0,0,1-.93-.94h0a.92.92,0,0,1,.91-.95h0a11.35,11.35,0,0,1,11.26,11.4.94.94,0,0,1-.91,1Z"/><path class="cls-1" d="M55.44,48H4.56A4.59,4.59,0,0,1,0,43.38H0v-33A4.59,4.59,0,0,1,4.56,5.77h8.9l6-5.52A.9.9,0,0,1,20,0H40a.9.9,0,0,1,.62.25l6,5.48h8.87A4.58,4.58,0,0,1,60,10.35h0v33A4.59,4.59,0,0,1,55.47,48ZM4.56,7.7a2.75,2.75,0,0,0-2.72,2.77V43.35a2.74,2.74,0,0,0,2.64,2.83h51a2.74,2.74,0,0,0,2.72-2.75h0v-33A2.75,2.75,0,0,0,55.44,7.7H46.22a.91.91,0,0,1-.6-.33l-6-5.48H20.41l-6,5.48a.89.89,0,0,1-.63.33Z"/><path class="cls-1" d="M54.59,12h0a.93.93,0,0,1-1-.92v0a1,1,0,0,1,1-.95h0a.93.93,0,0,1,.92.94h0a.93.93,0,0,1-.92.94Z"/><path class="cls-1" d="M10.17,7.7h-4a.93.93,0,0,1-.94-.93h0V2.65a1,1,0,0,1,.94-1h4a.94.94,0,0,1,.93.94v4a.93.93,0,0,1-.85,1Zm-3-1.9h2.1V3.59H7.12Z"/><path class="cls-1" d="M30,42.9a16,16,0,1,1,15.84-16A15.94,15.94,0,0,1,30,42.9Zm0-30.17A14.15,14.15,0,1,0,44,26.88v0A14.06,14.06,0,0,0,30,12.73Z"/></g></g></g></g></svg>