<svg xmlns="http://www.w3.org/2000/svg" viewBox="0 0 60 51.57"><defs><style>.cls-1{fill:#fff;}</style></defs><g id="Ebene_2" data-name="Ebene 2"><g id="Ebene_1-2" data-name="Ebene 1"><g id="Ebene_2-2" data-name="Ebene 2"><g id="_ŽÓť_1" data-name=" ŽÓť 1"><path class="cls-1" d="M57.54,51.57H2.46A2.47,2.47,0,0,1,0,49.1V16.52a.89.89,0,0,1,.89-.89H59.11a.89.89,0,0,1,.89.89h0V49.1a2.46,2.46,0,0,1-2.44,2.47ZM1.79,17.43V49.1a.67.67,0,0,0,.67.68H57.54a.68.68,0,0,0,.69-.68h0V17.43Z"/><path class="cls-1" d="M59.11,17.43H.89A.9.9,0,0,1,0,16.52H0V8A2.47,2.47,0,0,1,2.46,5.48h7a.88.88,0,0,1,.89.88V7.83a2.27,2.27,0,0,0,4.52,0V6.38a.89.89,0,0,1,.88-.9H44.27a.9.9,0,0,1,.9.9h0V7.83a2.25,2.25,0,0,0,4.5,0V6.38a.9.9,0,0,1,.9-.9h7A2.45,2.45,0,0,1,60,7.93v8.59a.88.88,0,0,1-.86.91ZM1.79,15.63H58.23V8a.69.69,0,0,0-.69-.69H51.46v.63a4,4,0,0,1-8.08,0V7.26H16.63v.63a4.05,4.05,0,0,1-8.09,0V7.26H2.46A.68.68,0,0,0,1.79,8Z"/><path class="cls-1" d="M12.6,11.93a4.06,4.06,0,0,1-4.06-4V4a4.05,4.05,0,0,1,8.09,0V7.89A4.05,4.05,0,0,1,12.6,11.93Zm0-10.17A2.26,2.26,0,0,0,10.33,4V7.89a2.27,2.27,0,0,0,4.52,0V4A2.26,2.26,0,0,0,12.6,1.79Z"/><path class="cls-1" d="M47.42,11.93a4,4,0,0,1-4-4h0V4a4,4,0,1,1,8.08,0V7.89A4.06,4.06,0,0,1,47.42,11.93Zm0-10.17A2.24,2.24,0,0,0,45.17,4V7.89a2.25,2.25,0,1,0,4.5,0V4a2.25,2.25,0,0,0-2.25-2.25Z"/><path class="cls-1" d="M13.58,28.89H6A.87.87,0,0,1,5.16,28h0V21.38a.88.88,0,0,1,.87-.9h7.55a.89.89,0,0,1,.89.89h0V28A.88.88,0,0,1,13.58,28.89ZM6.93,27.11h5.81V22.27H6.93Z"/><path class="cls-1" d="M26.91,28.89H19.37a.88.88,0,0,1-.89-.88h0V21.38a.88.88,0,0,1,.87-.9h7.56a.89.89,0,0,1,.88.89h0V28A.88.88,0,0,1,26.91,28.89Zm-6.66-1.78h5.81V22.27H20.25Z"/><path class="cls-1" d="M40.23,28.89H32.69A.88.88,0,0,1,31.8,28h0V21.38a.88.88,0,0,1,.87-.9h7.56a.88.88,0,0,1,.88.89h0V28A.87.87,0,0,1,40.23,28.89Zm-6.64-1.78h5.74V22.27H33.59Z"/><path class="cls-1" d="M53.55,28.89H46a.88.88,0,0,1-.89-.88h0V21.38a.9.9,0,0,1,.87-.9h7.56a.89.89,0,0,1,.89.89h0V28A.88.88,0,0,1,53.55,28.89Zm-6.64-1.78h5.81V22.27H46.91Z"/><path class="cls-1" d="M13.58,41.17H6a.88.88,0,0,1-.88-.89h0V33.64A.88.88,0,0,1,6,32.76h7.54a.89.89,0,0,1,.89.88h0v6.63a.88.88,0,0,1-.87.9ZM6.93,39.38h5.81V34.55H6.93Z"/><path class="cls-1" d="M26.91,41.17H19.37a.89.89,0,0,1-.89-.89h0V33.64a.89.89,0,0,1,.89-.88h7.54a.89.89,0,0,1,.88.88h0v6.63a.88.88,0,0,1-.87.9Zm-6.66-1.79h5.81V34.55H20.25Z"/><path class="cls-1" d="M40.23,41.17H32.69a.89.89,0,0,1-.89-.89h0V33.64a.89.89,0,0,1,.89-.88h7.54a.88.88,0,0,1,.88.88h0v6.63a.88.88,0,0,1-.87.9Zm-6.64-1.79h5.74V34.55H33.59Z"/><path class="cls-1" d="M53.55,41.17H46a.89.89,0,0,1-.89-.89h0V33.64a.89.89,0,0,1,.89-.88h7.54a.89.89,0,0,1,.89.88h0v6.63a.9.9,0,0,1-.88.9Zm-6.64-1.79h5.81V34.55H46.91Z"/></g></g></g></g></svg>