<svg xmlns="http://www.w3.org/2000/svg" viewBox="0 0 60 53"><defs><style>.cls-1{fill:#fff;}</style></defs><g id="Ebene_2" data-name="Ebene 2"><g id="Ebene_1-2" data-name="Ebene 1"><g id="Ebene_2-2" data-name="Ebene 2"><g id="_ŽÓť_1" data-name=" ŽÓť 1"><path class="cls-1" d="M59.1,16.54H.9A.87.87,0,0,1,0,15.87a.85.85,0,0,1,.46-1L29.6.1a.87.87,0,0,1,.8,0L59.5,14.88a.87.87,0,0,1,.41,1.17A.86.86,0,0,1,59.1,16.54ZM4.58,14.78H55.42L30,1.89Z"/><path class="cls-1" d="M59.1,53H.9A.9.9,0,0,1,0,52.1s0,0,0-.06a.87.87,0,0,1,.87-.87H59.1A.88.88,0,0,1,60,52h0a.89.89,0,0,1-.79,1Z"/><path class="cls-1" d="M55.88,48.7H4.15a.88.88,0,0,1-.88-.87v0a.88.88,0,0,1,.88-.87H55.88a.88.88,0,0,1,.88.87h0a.87.87,0,0,1-.86.89Z"/><path class="cls-1" d="M14.2,48.7H9.05a.88.88,0,0,1-.88-.87V15.65a.88.88,0,0,1,.88-.87H14.2a.88.88,0,0,1,.89.86h0V47.86A.9.9,0,0,1,14.2,48.7ZM9.88,46.94h3.44V16.54H9.94Z"/><path class="cls-1" d="M32.57,48.7H27.43a.88.88,0,0,1-.88-.87V15.65a.88.88,0,0,1,.88-.87h5.14a.87.87,0,0,1,.89.86h0V47.86A.88.88,0,0,1,32.57,48.7Zm-4.31-1.76h3.38V16.54H28.32Z"/><path class="cls-1" d="M51,48.7H45.81a.89.89,0,0,1-.89-.89V15.65a.87.87,0,0,1,.87-.87H51a.87.87,0,0,1,.88.87h0V47.86A.87.87,0,0,1,51,48.7Zm-4.31-1.76H50V16.54H46.68Z"/></g></g></g></g></svg>