<svg xmlns="http://www.w3.org/2000/svg" viewBox="0 0 60 44"><defs><style>.cls-1{fill:#fff;}</style></defs><g id="Ebene_2" data-name="Ebene 2"><g id="Ebene_1-2" data-name="Ebene 1"><g id="Ebene_2-2" data-name="Ebene 2"><g id="_ŽÓť_1" data-name=" ŽÓť 1"><path class="cls-1" d="M25.47,30.9H10.38A10,10,0,1,1,9.62,11H25.47a.88.88,0,0,1,.88.88h0V30a.88.88,0,0,1-.88.88ZM10.38,12.75a8.2,8.2,0,1,0-.69,16.38q.35,0,.69,0H24.57V12.75Z"/><path class="cls-1" d="M52.77,41.84a.84.84,0,0,1-.55-.21l-3-2.42a38,38,0,0,0-23.72-8.35.88.88,0,0,1-.9-.87h0V11.86a.87.87,0,0,1,.88-.88h0A38,38,0,0,0,49.19,2.62l3-2.42a.87.87,0,0,1,.94-.11.88.88,0,0,1,.5.79V41a.88.88,0,0,1-.5.79A1,1,0,0,1,52.77,41.84ZM26.42,29.14a39.89,39.89,0,0,1,24,8.73L52,39.14V2.74L50.38,4a39.89,39.89,0,0,1-24,8.73Z"/><path class="cls-1" d="M13.6,44a3.89,3.89,0,0,1-3.91-3.88A3.78,3.78,0,0,1,10,38.6l3.7-8.93a.88.88,0,0,1,.82-.54h6.56a.94.94,0,0,1,.74.4.91.91,0,0,1,0,.82L17.15,41.59A3.89,3.89,0,0,1,13.6,44Zm1.45-13.1-3.47,8.38a2.12,2.12,0,0,0,3.93,1.57l4.17-10Z"/><path class="cls-1" d="M52.77,28.51a.89.89,0,0,1-.89-.88h0V14.25a.89.89,0,0,1,.89-.88h0A7.23,7.23,0,0,1,60,20.59v.82A7.22,7.22,0,0,1,52.77,28.51Zm.89-13.29V26.66a5.41,5.41,0,0,0,4.59-5.31v-.82A5.39,5.39,0,0,0,53.66,15.22Z"/></g></g></g></g></svg>