<svg xmlns="http://www.w3.org/2000/svg" viewBox="0 0 60 58"><defs><style>.cls-1{fill:#fff;}</style></defs><g id="Ebene_2" data-name="Ebene 2"><g id="Ebene_1-2" data-name="Ebene 1"><g id="Ebene_2-2" data-name="Ebene 2"><g id="_ŽÓť_1" data-name=" ŽÓť 1"><path class="cls-1" d="M50.77,58H34.66a1,1,0,0,1-1-1V40.82H26.36V57a1,1,0,0,1-1,1H9.23a1,1,0,0,1-1-1V26.63H1a1,1,0,0,1-1-1.06,1.06,1.06,0,0,1,.36-.76L9.3,17.22V5.92a1,1,0,0,1,1-.93H16.8a1,1,0,0,1,1,1v4L29.33.25a1,1,0,0,1,1.33,0l29,24.56a1.06,1.06,0,0,1,.3,1.14,1,1,0,0,1-1,.68H51.79V57A1,1,0,0,1,50.77,58Zm-15-2H49.82V25.6a1,1,0,0,1,1-1h5.35L30,2.36,17.45,13a1,1,0,0,1-1.08.15,1,1,0,0,1-.6-.93V7H11.35V17.71a1,1,0,0,1-.37.78L3.81,24.58H9.23a1,1,0,0,1,1,1V56H24.31V39.81a1,1,0,0,1,1-1h9.32a1,1,0,0,1,1,1v0Z"/></g></g></g></g></svg>